# xmcd
#
# Track frame offsets: 
#        150
#        15010
#        29168
#        41427
#        52853
#        64894
#        74409
#        87207
#        101635
#        111906
#
# Disc length: 1689 seconds
#
# Revision: 0
# Processed by: cddbd v1.5.2PL0 Copyright (c) Steve Scherf et al.
# Submitted via: ExactAudioCopy v1.1
#
DISCID=7d06970a
DTITLE=George Jones - Country
DYEAR=2002
DGENRE=Country
TTITLE0=He Stopped Loving Her Today
TTITLE1=The Grand Tour
TTITLE2=The Door
TTITLE3=A Picture Of Me (Without You)
TTITLE4=Once You've Had The Best
TTITLE5=We Can Make It
TTITLE6=Still Doin' Time
TTITLE7=If Drinkin' Don't Kill Me (Her Memory Will)
TTITLE8=I'm A One Woman Man
TTITLE9=I Always Get Lucky With You
EXTD=
EXTT0=
EXTT1=
EXTT2=
EXTT3=
EXTT4=
EXTT5=
EXTT6=
EXTT7=
EXTT8=
EXTT9=
PLAYORDER=
